<svg width="271" height="30" viewBox="0 0 271 30" fill="none" xmlns="http://www.w3.org/2000/svg">
<path d="M0 1.67139H10.6567V3.59676H2.21642V11.5818H10.2687V13.5072H2.21642V24.0669H0V1.67139Z" fill="white"/>
<path d="M26.1192 20.2161C26.1192 21.4698 26.1192 22.7534 26.2461 24.0668H24.2909V21.1489H24.2237C23.5521 22.6265 22.3282 24.4549 18.9327 24.4549C14.8879 24.4549 13.3506 21.7609 13.3506 18.1639V7.70117H15.373V17.6489C15.373 20.731 16.4625 22.7161 19.2536 22.7161C22.9476 22.7161 24.0969 19.4773 24.0969 16.7459V7.70117H26.1192V20.2161Z" fill="white"/>
<path d="M30.2314 11.5523C30.2314 10.2986 30.2314 9.01497 30.1045 7.70154H32.0597V10.6194H32.1269C32.7985 9.14183 34.0224 7.31348 37.4179 7.31348C41.4627 7.31348 43 10.0075 43 13.6045V24.0672H40.9776V14.1194C40.9776 11.0374 39.8881 9.05228 37.097 9.05228C33.4105 9.05228 32.2537 12.2911 32.2537 15.0224V24.0747H30.2314V11.5523Z" fill="white"/>
<path d="M60.0749 24.0672H58.0525V21.4701H57.9854C56.8958 23.5597 55.2242 24.4552 52.8809 24.4552C48.3884 24.4552 46.1421 20.7313 46.1421 15.8881C46.1421 11.0448 48.0675 7.3209 52.8809 7.3209C56.0898 7.3209 57.6943 9.66418 57.9854 10.4627H58.0525V0H60.0749V24.0672ZM53.2093 22.7164C56.8063 22.7164 58.0525 18.8657 58.0525 15.8806C58.0525 12.8955 56.7988 9.04478 53.2093 9.04478C49.3585 9.04478 48.366 12.7015 48.366 15.8806C48.366 19.0597 49.3585 22.7164 53.2093 22.7164Z" fill="white"/>
<path d="M73.3882 21.4327H73.321C72.4255 23.388 70.1419 24.4477 68.1195 24.4477C63.4703 24.4477 62.7314 21.3059 62.7314 19.8283C62.7314 14.3432 68.5747 14.082 72.8061 14.082H73.1941V13.2462C73.1941 10.4551 72.2016 9.04468 69.4703 9.04468C67.7688 9.04468 66.1643 9.43274 64.6568 10.3954V8.4402C65.9106 7.82826 68.03 7.3208 69.4703 7.3208C73.515 7.3208 75.2165 9.14916 75.2165 13.4178V20.6342C75.2165 21.9477 75.2165 22.9477 75.3732 24.0671H73.3807V21.4327H73.3882ZM73.1941 15.8208H72.6195C69.1195 15.8208 64.9479 16.1715 64.9479 19.7686C64.9479 21.9178 66.4852 22.7238 68.3508 22.7238C73.0971 22.7238 73.1941 18.582 73.1941 16.8208V15.8283V15.8208Z" fill="white"/>
<path d="M89.7238 9.88064C88.6343 9.40303 87.3134 9.04482 86.2238 9.04482C82.2761 9.04482 80.0596 11.903 80.0596 15.8806C80.0596 19.6045 82.3059 22.7165 85.9925 22.7165C87.2761 22.7165 88.4626 22.4254 89.6865 21.9777L89.8805 23.8732C88.4999 24.3508 87.2164 24.4478 85.679 24.4478H85.6119L85.1343 25.7986C85.4253 25.7687 85.8432 25.7015 86.194 25.7015C87.4776 25.7015 88.5373 26.4403 88.5373 27.7836C88.5373 29.6791 86.485 30 85.0074 30C83.6268 30 82.0223 29.3881 81.7686 29.2911L81.9925 28.1045C82.4104 28.3956 83.694 29.0374 84.8507 29.0374C85.8134 29.0374 86.5223 28.6493 86.5223 27.8508C86.5223 27.112 86.0447 26.6642 85.3059 26.6642C84.8582 26.6642 84.4104 26.6941 83.9552 26.7911L84.791 24.3806C80.1044 23.9329 77.8582 20.1418 77.8582 15.8806C77.8582 10.8433 81.097 7.31348 85.9477 7.31348C87.9029 7.31348 89.3208 7.76124 89.8955 7.95527L89.7388 9.88064H89.7238Z" fill="white"/>
<path d="M101.754 21.4331H101.686C100.791 23.3883 98.5074 24.4481 96.485 24.4481C91.8283 24.4481 91.0969 21.3063 91.0969 19.8286C91.0969 14.3436 96.9402 14.0824 101.172 14.0824H101.56V13.2466C101.56 10.4555 100.567 9.04507 97.8357 9.04507C96.1342 9.04507 94.5298 9.43313 93.0223 10.3958V8.44059C94.276 7.82865 96.388 7.32119 97.8357 7.32119C101.881 7.32119 103.582 9.14954 103.582 13.4182V20.6346C103.582 21.9481 103.582 22.9481 103.746 24.0675H101.754V21.4331ZM101.56 15.8212H100.985C97.485 15.8212 93.3133 16.1719 93.3133 19.7689C93.3133 21.9182 94.8507 22.7242 96.7163 22.7242C101.463 22.7242 101.56 18.5824 101.56 16.8212V15.8286V15.8212ZM93.4104 5.26149C93.7014 3.88089 94.4999 2.37343 96.0074 2.37343C96.6492 2.37343 97.3581 2.56746 97.9626 2.76149C98.5671 2.95552 99.1193 3.1794 99.373 3.1794C100.045 3.1794 100.754 2.79134 100.948 2.08984H102.134C101.813 4.43313 100.276 4.91074 99.4701 4.91074C98.7312 4.91074 98.0596 4.68686 97.4775 4.49283C96.9029 4.2988 96.388 4.10477 95.9701 4.10477C95.1342 4.10477 94.8507 4.49283 94.5596 5.26149H93.4029H93.4104Z" fill="white"/>
<path d="M113.821 7.31348C119.112 7.31348 121.455 11.418 121.455 15.8806C121.455 20.3433 119.112 24.4478 113.821 24.4478C108.53 24.4478 106.187 20.3433 106.187 15.8806C106.187 11.418 108.53 7.31348 113.821 7.31348ZM113.821 22.7165C117.351 22.7165 119.246 19.6642 119.246 15.8806C119.246 12.0971 117.351 9.04482 113.821 9.04482C110.291 9.04482 108.395 12.0896 108.395 15.8806C108.395 19.6717 110.291 22.7165 113.821 22.7165Z" fill="white"/>
<path fill-rule="evenodd" clip-rule="evenodd" d="M123.336 23.2835C125.254 23.9029 127.761 24.2089 129.769 24.2089C134.56 24.2089 139.261 22.6939 139.261 17.0969C139.261 9.29842 129.052 11.6566 129.052 8.15663C129.052 6.26857 131.463 6.14917 132.918 6.14917C134.56 6.14917 136.231 6.45514 137.709 7.13424L138.082 2.67902C136.627 2.18648 134.589 1.87305 132.515 1.87305C128.186 1.87305 123.112 3.29842 123.112 8.49245C123.112 16.3507 133.321 13.8133 133.321 17.8357C133.321 19.5671 131.589 19.9402 129.769 19.9402C127.388 19.9402 125.313 19.3208 123.828 18.5148L123.336 23.276V23.2835Z" fill="white"/>
<path fill-rule="evenodd" clip-rule="evenodd" d="M156.798 23.8435C156.552 22.5748 156.492 21.3062 156.492 20.0375V14.0375C156.492 9.11959 152.933 7.3584 148.821 7.3584C146.44 7.3584 144.366 7.69422 142.388 8.50019L142.478 12.2763C144.022 11.4106 145.821 11.0674 147.612 11.0674C149.619 11.0674 151.261 11.6569 151.291 13.8509C150.582 13.7241 149.589 13.6345 148.694 13.6345C145.724 13.6345 140.373 14.2241 140.373 19.142C140.373 22.6345 143.216 24.2166 146.403 24.2166C148.694 24.2166 150.239 23.3211 151.507 21.3062H151.567C151.567 22.142 151.657 22.9778 151.694 23.8435H156.798ZM145.575 18.739C145.575 17.1942 147.06 16.6047 148.948 16.6047C149.783 16.6047 150.589 16.6644 151.298 16.6942C151.298 18.5823 149.97 20.5002 147.866 20.5002C146.567 20.5002 145.575 19.8509 145.575 18.739Z" fill="white"/>
<path fill-rule="evenodd" clip-rule="evenodd" d="M158.806 23.8435H164.373V17.0375C164.373 13.5748 165.552 11.9927 167.836 11.9927C169.351 11.9927 170.403 13.0151 170.403 16.045V23.8435H175.97V13.7912C175.97 10.448 174.209 7.3584 169.813 7.3584C167.276 7.3584 165.052 8.38079 163.94 10.7017H163.881V7.73153H158.806V23.8435Z" fill="white"/>
<path fill-rule="evenodd" clip-rule="evenodd" d="M176.776 11.6266H179.963V18.1863C179.963 22.0221 181.172 24.2161 186.149 24.2161C187.545 24.2161 188.59 24.0296 189.642 23.9102L189.455 20.2908C188.896 20.3803 188.313 20.5072 187.754 20.5072C185.993 20.5072 185.53 19.5221 185.53 17.5669V11.6266H189.425V7.73105H185.53V2.41016L180.052 4.11165V7.73105H176.776V11.6266Z" fill="white"/>
<path fill-rule="evenodd" clip-rule="evenodd" d="M191.343 23.843H196.91V7.7236H191.343V23.843ZM196.91 1.01465H191.343V5.09674H196.91V1.01465Z" fill="white"/>
<path d="M206 0.641602H200.433V23.8431H206V0.641602Z" fill="white"/>
<path d="M215.097 0.641602H209.53V23.8431H215.097V0.641602Z" fill="white"/>
<path fill-rule="evenodd" clip-rule="evenodd" d="M233.619 23.8435C233.373 22.5748 233.313 21.3062 233.313 20.0375V14.0375C233.313 9.11959 229.754 7.3584 225.642 7.3584C223.261 7.3584 221.187 7.69422 219.209 8.50019L219.299 12.2763C220.843 11.4106 222.642 11.0674 224.433 11.0674C226.44 11.0674 228.082 11.6569 228.112 13.8509C227.403 13.7241 226.411 13.6345 225.515 13.6345C222.545 13.6345 217.194 14.2241 217.194 19.142C217.194 22.6345 220.037 24.2166 223.224 24.2166C225.515 24.2166 227.06 23.3211 228.328 21.3062H228.388C228.388 22.142 228.478 22.9778 228.515 23.8435H233.619ZM222.396 18.739C222.396 17.1942 223.881 16.6047 225.769 16.6047C226.605 16.6047 227.41 16.6644 228.119 16.6942C228.119 18.5823 226.791 20.5002 224.687 20.5002C223.388 20.5002 222.396 19.8509 222.396 18.739Z" fill="white"/>
<path fill-rule="evenodd" clip-rule="evenodd" d="M235.627 23.8435H241.194V17.0375C241.194 13.5748 242.373 11.9927 244.657 11.9927C246.172 11.9927 247.224 13.0151 247.224 16.045V23.8435H252.791V13.7912C252.791 10.448 251.03 7.3584 246.634 7.3584C244.097 7.3584 241.873 8.38079 240.761 10.7017H240.702V7.73153H235.627V23.8435Z" fill="white"/>
<path fill-rule="evenodd" clip-rule="evenodd" d="M270.671 23.8435C270.425 22.5748 270.366 21.3062 270.366 20.0375V14.0375C270.366 9.11959 266.806 7.3584 262.694 7.3584C260.313 7.3584 258.239 7.69422 256.261 8.50019L256.351 12.2763C257.895 11.4106 259.694 11.0674 261.485 11.0674C263.492 11.0674 265.134 11.6569 265.164 13.8509C264.455 13.7241 263.463 13.6345 262.567 13.6345C259.597 13.6345 254.246 14.2241 254.246 19.142C254.246 22.6345 257.089 24.2166 260.276 24.2166C262.567 24.2166 264.112 23.3211 265.38 21.3062H265.44C265.44 22.142 265.53 22.9778 265.567 23.8435H270.671ZM259.448 18.739C259.448 17.1942 260.933 16.6047 262.821 16.6047C263.657 16.6047 264.463 16.6644 265.171 16.6942C265.171 18.5823 263.843 20.5002 261.739 20.5002C260.44 20.5002 259.448 19.8509 259.448 18.739Z" fill="white"/>
</svg>